<?xml version="1.0" encoding="utf-8"?>
<!-- Generator: Adobe Illustrator 20.1.0, SVG Export Plug-In . SVG Version: 6.00 Build 0)  -->
<svg version="1.1" id="Layer_1" xmlns="http://www.w3.org/2000/svg" xmlns:xlink="http://www.w3.org/1999/xlink" x="0px" y="0px"
	 viewBox="0 0 844.9 468.1" style="enable-background:new 0 0 844.9 468.1;" xml:space="preserve">
<style type="text/css">
	.st0{display:none;}
	.st1{display:inline;fill:none;stroke:#000000;stroke-miterlimit:10;}
	.st2{fill:#FFFFFF;}
</style>
<g class="st0">
	<rect x="69.1" y="38.3" class="st1" width="30" height="30"/>
	<rect x="269.6" y="8.3" class="st1" width="30" height="30"/>
	<rect x="269.6" y="-21.7" class="st1" width="30" height="30"/>
	<rect x="239.6" y="238.8" class="st1" width="30" height="30"/>
	<rect x="239.6" y="208.8" class="st1" width="30" height="30"/>
	<rect x="99.1" y="38.3" class="st1" width="170.5" height="170.5"/>
</g>
<path class="st2" d="M470.5,121.3c0-3.5-1.9-5.2-5.2-5.2l0,0c-5.4,0-9.8-4.4-9.8-9.8v0c0-5.4,4.4-9.8,9.8-9.8h13
	c8.4,0,15.1,6.8,15.1,15.1v39c0,5.7-0.5,9.9-0.5,9.9h0.5c0,0,10.4-19.6,38.6-19.6c32.2,0,52.5,25.5,52.5,62.7
	c0,38.1-22.9,62.7-54.4,62.7c-26.7,0-37.6-20.1-37.6-20.1H492l0.2,6.1c0.2,6.1-4.7,11.1-10.8,11.1h0c-6,0-10.8-4.9-10.8-10.8V121.3z
	 M526.8,246.7c18.9,0,34.5-15.6,34.5-42.8c0-26-14-42.8-34.1-42.8c-17.7,0-34.3,12.5-34.3,43.1C492.9,225.4,504.1,246.7,526.8,246.7
	z M595.4,168.6c0-3.5-1.9-5.2-5.2-5.2l0,0c-5.4,0-9.8-4.4-9.8-9.8v0c0-5.4,4.4-9.8,9.8-9.8H603c10.9,0,15.4,4.5,15.4,14.7v56.8
	c0,16.6,3.3,29.8,22.2,29.8c24.6,0,39-21.5,39-45.2v-44.6c0-6.3,5.1-11.5,11.5-11.5h0c6.3,0,11.5,5.1,11.5,11.5v83.4
	c0,3.5,1.9,5.2,5.2,5.2l0,0c5.4,0,9.8,4.4,9.8,9.8v0c0,5.4-4.4,9.8-9.8,9.8h-12.3c-10.2,0-15.1-4.7-15.1-13.2v-4.5
	c0-3.8,0.2-6.9,0.2-6.9h-0.5c-5,11.8-20.3,27.4-44,27.4c-27,0-40.7-14.2-40.7-45.9V168.6z M740.5,293.3c9.2,0,16.6-6.6,21.1-17.3
	l5.4-13l-40.9-94.9c-1.7-3.8-3.8-4.7-7.6-4.7l0,0c-5.4,0-9.8-4.4-9.8-9.8v0c0-5.4,4.4-9.8,9.8-9.8h10.6c9.7,0,13.2,2.6,17,12.1
	l27.2,67.4c2.4,6.1,4.3,14.4,4.3,14.4h0.5c0,0,1.7-8.3,4-14.4l24.8-67.4c3.5-9.5,7.8-12.1,17.5-12.1h10.6c5.4,0,9.8,4.4,9.8,9.8v0
	c0,5.4-4.4,9.8-9.8,9.8l0,0c-3.8,0-5.9,0.9-7.6,4.7L780.2,285c-7.3,18.5-21.8,28.1-38.6,28.1c-9,0-16.1-3-20.9-6
	c-4.3-2.7-5.7-8.4-3.2-12.8l0,0c2.6-4.5,8.3-6.1,12.9-3.6C733.3,292.1,736.7,293.3,740.5,293.3z M468.1,234
	c0,129.3-104.8,234-234,234S0,363.3,0,234S104.8,0,234,0S468.1,104.8,468.1,234z M341.6,220.4c0,31.7,13.7,45.9,40.7,45.9
	c23.7,0,39-15.6,44-27.4h0.5c0,0-0.2,3.1-0.2,6.9v4.5c0,8.5,5,13.2,15.1,13.2h12.3c5.4,0,9.8-4.4,9.8-9.8v0c0-5.4-4.4-9.8-9.8-9.8
	l0,0c-3.3,0-5.2-1.7-5.2-5.2v-83.4c0-6.3-5.1-11.5-11.5-11.5h0c-6.3,0-11.5,5.1-11.5,11.5v44.6c0,23.7-14.4,45.2-39,45.2
	c-18.9,0-22.2-13.2-22.2-29.8v-56.8c0-10.2-4.5-14.7-15.4-14.7h-12.8c-5.4,0-9.8,4.4-9.8,9.8v0c0,5.4,4.4,9.8,9.8,9.8l0,0
	c3.3,0,5.2,1.7,5.2,5.2V220.4z M330.6,57.1h-15c-16.5,0-30.5,13.4-30.5,29.9v54.8v75.7c0,38.6-30.9,69.6-69.5,69.6h-0.5
	c-38.6,0-70-31-70-69.6V147c0-16.5-13.5-29.9-30-29.9h-15c-8.3,0-15,6.7-15,15s6.7,15,15,15h15v70.4c0,55.1,44.9,99.6,100,99.6h0.5
	c27.2,0,51.5-10.5,69.5-28.3v13.7c0,24.8-19.7,44.6-44.5,44.6H140.1c-8.3,0-15,6.7-15,15s6.7,15,15,15h100.5
	c41.4,0,74.5-33.2,74.5-74.6v-85v-75.7V87.1h15.5c8.3,0,15-6.7,15-15S338.9,57.1,330.6,57.1z M300.1,380.5c-8.3,0-15,6.7-15,15
	c0,8.3,6.7,15,15,15s15-6.7,15-15C315.1,387.3,308.4,380.5,300.1,380.5z M140.1,380.5c-8.3,0-15,6.7-15,15c0,8.3,6.7,15,15,15
	c8.3,0,15-6.7,15-15C155.1,387.3,148.4,380.5,140.1,380.5z"/>
</svg>
